<svg width="20" height="20" viewBox="0 0 20 20" fill="none" xmlns="http://www.w3.org/2000/svg">
<path fill-rule="evenodd" clip-rule="evenodd" d="M10 2C8.04777 2 6.24816 2.161 4.80371 2.35177C3.50372 2.52346 2.52346 3.50372 2.35177 4.80371C2.16101 6.24816 2 8.04777 2 10C2 11.9522 2.161 13.7518 2.35177 15.1963C2.52346 16.4963 3.50372 17.4765 4.80371 17.6482C6.24816 17.839 8.04777 18 10 18C11.9522 18 13.7518 17.839 15.1963 17.6482C16.4963 17.4765 17.4765 16.4963 17.6482 15.1963C17.839 13.7518 18 11.9522 18 10C18 8.04777 17.839 6.24816 17.6482 4.80371C17.4765 3.50372 16.4963 2.52346 15.1963 2.35177C13.7518 2.16101 11.9522 2 10 2ZM4.54184 0.368993C2.34504 0.659124 0.659124 2.34504 0.368993 4.54184C0.169534 6.05208 0 7.94127 0 10C0 12.0587 0.169534 13.9479 0.368993 15.4582C0.659124 17.655 2.34504 19.3409 4.54184 19.631C6.05208 19.8305 7.94127 20 10 20C12.0587 20 13.9479 19.8305 15.4582 19.631C17.655 19.3409 19.3409 17.655 19.631 15.4582C19.8305 13.9479 20 12.0587 20 10C20 7.94127 19.8305 6.05208 19.631 4.54184C19.3409 2.34504 17.655 0.659124 15.4582 0.368993C13.9479 0.169534 12.0587 0 10 0C7.94127 0 6.05208 0.169534 4.54184 0.368993Z" fill="#777E91"/>
<path d="M7.00012 9C8.10469 9 9.00012 8.10457 9.00012 7C9.00012 5.89543 8.10469 5 7.00012 5C5.89555 5 5.00012 5.89543 5.00012 7C5.00012 8.10457 5.89555 9 7.00012 9Z" fill="#777E91"/>
<path d="M16.1214 10.7073L17.9158 12.5016C17.8538 13.4378 17.7634 14.3065 17.6638 15.0781L14.7072 12.1215C14.3167 11.731 13.6835 11.731 13.293 12.1215L11.1214 14.2931C9.94986 15.4647 8.05037 15.4647 6.8788 14.2931L6.70722 14.1215C6.3167 13.731 5.68354 13.731 5.29301 14.1215L2.88395 16.5306C2.60487 16.1522 2.41815 15.6981 2.35188 15.1963C2.31574 14.9227 2.28067 14.6363 2.24756 14.3385L3.8788 12.7073C5.05037 11.5357 6.94987 11.5357 8.12144 12.7073L8.29301 12.8789C8.68354 13.2694 9.3167 13.2694 9.70722 12.8789L11.8788 10.7073C13.0504 9.53572 14.9499 9.53572 16.1214 10.7073Z" fill="#777E91"/>
</svg>
