<svg width="23" height="23" viewBox="0 0 23 23" fill="none" xmlns="http://www.w3.org/2000/svg">
<path d="M18.2305 3.01374V19.7663C18.2305 21.4307 16.8812 22.78 15.2168 22.78H3.01374C1.3493 22.78 0 21.4305 0 19.7661V8.48205L7.88457 0H15.2168C16.8812 0 18.2305 1.3493 18.2305 3.01374Z" fill="#FFB13B"/>
<path fill-rule="evenodd" clip-rule="evenodd" d="M0 8.48205V19.7661C0 21.4305 1.3493 22.78 3.01374 22.78H15.2168C16.8812 22.78 18.2305 21.4307 18.2305 19.7663V3.01374C18.2305 1.3493 16.8812 0 15.2168 0H7.88457L0 8.48205ZM7.13114 3.02378L2.66709 7.8261L6.35004 7.96142C6.77671 7.9771 7.13114 7.63545 7.13114 7.20849V3.02378ZM1.50687 9.29136V19.7661C1.50687 20.5984 2.18164 21.2731 3.01374 21.2731H15.2168C16.049 21.2731 16.7236 20.5985 16.7236 19.7663V3.01374C16.7236 2.18152 16.049 1.50687 15.2168 1.50687H8.63801V7.20849C8.63801 8.48937 7.57472 9.5143 6.29471 9.46727L1.50687 9.29136Z" fill="black"/>
<rect x="7.09033" y="10.3179" width="15.8936" height="8.89715" rx="1.44782" fill="black"/>
<path d="M10.3001 11.8216C10.6979 11.8216 11.0434 11.8762 11.3374 11.987C11.6299 12.0969 11.8966 12.2646 12.136 12.49L11.555 13.1584C11.1923 12.8683 10.8047 12.7224 10.3921 12.7224C10.1722 12.7224 9.99908 12.7669 9.87195 12.8542C9.81004 12.8955 9.75984 12.9521 9.72622 13.0185C9.69261 13.0849 9.67672 13.1589 9.6801 13.2333C9.6801 13.3487 9.70818 13.4423 9.76433 13.5148C9.82048 13.5873 9.92031 13.6567 10.063 13.7215C10.2058 13.7862 10.4202 13.8642 10.7057 13.9547C11.2461 14.1247 11.6439 14.3337 11.8989 14.5817C12.154 14.8289 12.2811 15.1807 12.2811 15.6361C12.2811 15.9621 12.1976 16.2484 12.0292 16.4964C11.8607 16.7444 11.6182 16.937 11.3023 17.0743C10.9857 17.2123 10.6113 17.281 10.1777 17.281C9.74405 17.281 9.36034 17.2131 9.02654 17.0782C8.70839 16.9532 8.41638 16.7699 8.16553 16.5377L8.80037 15.8545C9.0047 16.0245 9.21528 16.1517 9.43209 16.2367C9.64812 16.3225 9.88443 16.3646 10.1395 16.3646C10.3992 16.3646 10.6051 16.3084 10.7556 16.1961C10.8288 16.1423 10.8876 16.0714 10.9269 15.9895C10.9662 15.9076 10.9848 15.8173 10.981 15.7266C10.9851 15.6118 10.9558 15.4983 10.8967 15.3998C10.8406 15.3125 10.7439 15.2337 10.6058 15.1635C10.4134 15.0721 10.2139 14.9965 10.0092 14.9373C9.42273 14.7626 9.00548 14.5474 8.75825 14.2924C8.51102 14.0366 8.38702 13.7137 8.38702 13.3237C8.38702 13.0235 8.46891 12.7591 8.63191 12.5313C8.80511 12.2958 9.04103 12.1136 9.31276 12.0057C9.62618 11.8786 9.96198 11.816 10.3001 11.8216ZM16.941 11.9495L15.4639 17.153H13.9041L12.3731 11.9495H13.6966L14.7066 16.1922L15.6557 11.9495H16.941ZM19.6262 11.8216C20.3094 11.8216 20.8982 12.0345 21.3935 12.4596L20.7586 13.1132C20.5981 12.9891 20.4219 12.8869 20.2345 12.809C20.0569 12.7435 19.8685 12.7118 19.6792 12.7154C19.2869 12.7154 18.9734 12.8667 18.7387 13.1693C18.5039 13.4727 18.3869 13.9321 18.3869 14.5474C18.3869 15.2134 18.4758 15.6853 18.6544 15.9629C18.833 16.2406 19.1107 16.3802 19.4889 16.3802C19.7541 16.3802 19.9935 16.3225 20.2072 16.207V15.0278H19.5186L19.3961 14.1567H21.4239V16.7327C21.1416 16.911 20.8351 17.0476 20.5137 17.1382C20.1823 17.2334 19.8508 17.281 19.5186 17.281C18.7129 17.281 18.1062 17.0493 17.6983 16.5868C17.2904 16.1236 17.0861 15.4435 17.0861 14.5474C17.0861 13.9765 17.1968 13.4867 17.4191 13.0757C17.6246 12.6818 17.941 12.3567 18.3292 12.1406C18.727 11.9247 19.1737 11.8149 19.6262 11.8216Z" fill="white"/>
</svg>
